Coordinates
version=1
nRows=8
nColumns=36
inDegrees=yes

Units are S.I. units (second, meters, Newtons, ...)
If the header above contains a line with 'inDegrees', this indicates whether rotational values are in degrees (yes) or radians (no).

endheader
time	pelvis_tilt	pelvis_list	pelvis_rotation	pelvis_tx	pelvis_ty	pelvis_tz	hip_flexion_r	hip_adduction_r	hip_rotation_r	knee_angle_r	knee_angle_r_beta	ankle_angle_r	subtalar_angle_r	mtp_angle_r	hip_flexion_l	hip_adduction_l	hip_rotation_l	knee_angle_l	knee_angle_l_beta	ankle_angle_l	subtalar_angle_l	mtp_angle_l	lumbar_extension	lumbar_bending	lumbar_rotation	arm_flex_r	arm_add_r	arm_rot_r	elbow_flex_r	pro_sup_r	arm_flex_l	arm_add_l	arm_rot_l	elbow_flex_l	pro_sup_l
      3.22000000	    -23.06542291	      1.60560765	      1.23162696	     -0.29355584	      0.81504261	     -0.59203065	     55.83345709	     -9.91016843	     -2.29735873	     47.48266238	      0.82872880	     19.83583515	      1.34680025	     -7.49999987	     56.04219476	     -7.89682533	     -9.37356841	     47.89601301	      0.83594313	     14.87017785	      5.33961502	     -7.49999987	    -15.04706832	     -2.47328235	     -1.01210559	     32.44347738	    -11.88961924	     -4.31777568	    118.12734274	    101.98602194	     37.22410945	    -12.56697839	     -1.32768260	    109.06001084	     94.23657030
      3.23000000	    -23.35186128	      1.49762708	      1.30394998	     -0.29727902	      0.81070215	     -0.59232664	     57.03512571	    -10.04861543	     -2.37214630	     48.67139203	      0.84947604	     20.08155372	      1.37983235	     -7.49999987	     57.25218678	     -8.19594378	     -9.56848862	     49.01039070	      0.85539269	     15.01357100	      5.43974619	     -7.49999987	    -15.69847272	     -2.29774910	     -1.00973664	     34.02584267	    -11.97778888	     -4.23672954	    118.48327624	    102.02808804	     38.77837372	    -12.55497045	     -1.11690126	    109.42273311	     94.32748571
      3.24000000	    -24.17939838	      1.41236853	      1.29340601	     -0.30098780	      0.80522604	     -0.59235679	     58.90824446	    -10.15193218	     -2.42898127	     49.94611366	      0.87172413	     20.74937354	      1.81729363	     -7.49999987	     59.05899511	     -8.59168371	     -9.79455514	     50.24259040	      0.87689863	     15.58137456	      6.13900325	     -7.49999987	    -15.64391242	     -2.21282938	     -0.91978281	     35.27251211	    -12.20275369	     -3.93996817	    119.09126146	    102.15061421	     40.09202373	    -12.68528015	     -0.72058376	    109.97747620	     94.55565096
      3.25000000	    -24.52429440	      1.29856056	      1.29290612	     -0.30448595	      0.80044820	     -0.59229827	     60.22232005	    -10.16925414	     -2.36281914	     51.21711294	      0.89390725	     21.06408246	      1.81398018	     -7.49999987	     60.34556501	     -9.04193552	    -10.10562000	     51.44861822	      0.89794778	     15.80452297	      6.33138298	     -7.49999987	    -16.16614365	     -2.03582160	     -0.90667950	     36.74149579	    -12.28411020	     -3.70114275	    119.46101886	    102.21912666	     41.55706986	    -12.72608782	     -0.60979534	    110.37698512	     94.66766425
      3.26000000	    -25.11677153	      1.23692237	      1.21724351	     -0.30790837	      0.79504367	     -0.59223482	     61.86022436	    -10.15220099	     -2.18684090	     52.53388866	      0.91688933	     21.50337738	      1.91133486	     -7.49999987	     61.89512505	     -9.51511506	    -10.42469485	     52.72345270	      0.92019784	     16.24612495	      6.74713237	     -7.49999987	    -16.34812422	     -1.94427337	     -0.85545551	     38.07458756	    -12.41477948	     -3.26733777	    119.87796910	    102.30763319	     42.80489551	    -12.87710861	     -0.38630084	    110.91464632	     94.82614780
      3.27000000	    -25.64067412	      1.25776857	      1.25907400	     -0.31126190	      0.78973837	     -0.59265571	     63.43067097	    -10.37596321	     -2.06952632	     53.86741419	      0.94016374	     21.99795020	      2.25454044	     -7.49999987	     63.31804137	     -9.73389118	    -10.61548486	     53.88660304	      0.94049865	     16.82801159	      7.30872071	     -7.49999987	    -16.61138570	     -1.94783304	     -0.88993314	     39.43591066	    -12.53949678	     -2.96597497	    120.20585111	    102.38607139	     44.16517727	    -12.96439615	     -0.08533893	    111.42212969	     95.01761233
      3.28000000	    -25.81083944	      1.28554832	      1.37471672	     -0.31446916	      0.78493409	     -0.59315232	     64.59211255	    -10.71619781	     -2.08760959	     55.19854052	      0.96339627	     22.32369683	      2.35090647	     -7.49999987	     64.37695812	     -9.84411971	    -10.70199914	     55.03807477	      0.96059562	     17.09028503	      7.43946560	     -7.49999987	    -17.28793766	     -1.93605759	     -0.98320720	     40.85886476	    -12.60010970	     -2.84480941	    120.45468250	    102.42152296	     45.65898401	    -12.89624129	      0.07401025	    111.77824733	     95.10722738
      3.29000000	    -26.04071375	      1.29701501	      1.43016587	     -0.31769460	      0.77983303	     -0.59316165	     65.81202727	    -10.91796770	     -2.01749898	     56.49704120	      0.98605939	     22.74443798	      2.43862296	     -7.49999987	     65.51835346	    -10.04354251	    -10.73229223	     56.22795551	      0.98136296	     17.37675181	      7.55026858	     -7.49999987	    -17.86742640	     -1.94313146	     -1.03553348	     42.26039186	    -12.57722144	     -2.65555162	    120.72293759	    102.45580218	     47.10800617	    -12.86454139	      0.21446194	    112.12894650	     95.17841790
